<?xml version="1.0" encoding="utf-8"?>
<!-- Generator: Adobe Illustrator 16.0.0, SVG Export Plug-In . SVG Version: 6.00 Build 0)  -->
<!DOCTYPE svg PUBLIC "-//W3C//DTD SVG 1.1//EN" "http://www.w3.org/Graphics/SVG/1.1/DTD/svg11.dtd">
<svg version="1.1" id="Layer_1" xmlns="http://www.w3.org/2000/svg" xmlns:xlink="http://www.w3.org/1999/xlink" x="0px" y="0px"
	 width="407.054px" height="322.648px" viewBox="0 0 407.054 322.648" enable-background="new 0 0 407.054 322.648"
	 xml:space="preserve">
<g>
	<g>
		<g>
			<g>
				<path fill="#DBD5D5" d="M210.558,275.251l48.181-77.011l-25.204-18.804l-62.596,4.446l-23.765,22.363l53.645,74.595
					C204.03,278.84,207.285,277,210.558,275.251z"/>
			</g>
			<g>
				<path fill="#181515" d="M292.851,205.195c-5.177-7.702-33.368-12.148-33.368-12.148l-18.148-4.593l-37.808,90.654l-37.82-90.654
					l-18.122,4.593c0,0-28.206,4.446-33.404,12.148c-9.318,5.958-9.999,80.006-8.133,80.284c1.651,0.277,71.533,0.059,85.312,0.008
					c17.783,0.051,107.988,0.269,109.652-0.008C302.868,285.202,302.188,211.154,292.851,205.195z"/>
			</g>
			<g>
				<rect x="175.511" y="149.251" fill="#D1AC87" width="56.057" height="43.796"/>
			</g>
			<g>
				<g>
					<path fill="#FFE2C2" d="M248.897,121.205c-3.454,33.881-29.019,59.039-45.269,59.039c-17.381,0-41.215-25.851-45.281-59.039
						c-3.971-32.349,20.272-48.804,45.281-48.804C228.635,72.401,252.213,88.782,248.897,121.205z"/>
				</g>
				<g>
					<path fill="#0E0D0D" d="M156.594,87.892c3.693-12.989,16.073-27.87,31.839-31.738c13.213-3.231,36.908-6.99,56.986,13.339
						c2.643,2.662,5.588,9.083,5.756,15.793c1.786,3.263,2.773,7.635,2.118,13.581c-2.286,21.382-4.244,27.445-4.244,27.445
						l-5.391,2.5c0,0,2.635-7.358-0.861-17.514c-0.95-2.75-2.244-5.339-3.656-7.694c-23.002,12.709-58.476,15.182-74.269,15.621
						c-0.498,5.812,0.788,9.587,0.788,9.587l-5.373-2.5c0,0-0.586-1.844-1.485-7c-1.288,0.008-2.019-0.013-2.019-0.013
						S152.205,103.386,156.594,87.892z"/>
				</g>
				<g>
					<g>
						<path fill="#FFE2C2" d="M162.296,126.529c2.355,6.78,4.183,13.303,1.382,14.276c-2.786,0.971-9.125-3.979-11.48-10.743
							c-2.361-6.771-2.013-13.045,0.767-14.018C155.772,115.064,159.943,119.766,162.296,126.529z"/>
					</g>
				</g>
				<g>
					<g>
						<path fill="#FFE2C2" d="M244.771,126.529c-2.357,6.78-4.177,13.303-1.37,14.276c2.786,0.971,9.127-3.979,11.48-10.743
							c2.361-6.771,2.013-13.045-0.765-14.018C251.31,115.064,247.137,119.766,244.771,126.529z"/>
					</g>
				</g>
			</g>
			<g>
				<g>
					<polygon fill="#0E0D0D" points="217.639,200.296 203.518,212.133 189.414,200.296 203.518,188.455 					"/>
				</g>
				<g>
					<polygon fill="#0E0D0D" points="200.99,209.406 192.689,249.964 202.957,283.328 215.685,249.964 206.23,209.406 					"/>
				</g>
			</g>
			<g>
				<g>
					<path fill="#FFF8F8" d="M173.53,171.064l29.997,17.432l-9.873,21.001l-23.416-21.716c0,0-6.165-1.58-4.11-4.354
						C168.177,180.672,173.147,178.181,173.53,171.064z"/>
				</g>
				<g>
					<path fill="#FFF8F8" d="M233.552,171.123l-29.939,17.374l9.845,20.934l23.397-21.627c0,0,6.152-1.601,4.109-4.349
						C238.914,180.714,233.955,178.227,233.552,171.123z"/>
				</g>
			</g>
			<g>
				<polygon fill="#343130" points="203.526,279.109 169.214,180.244 157.705,189.908 145.696,196.375 160.417,220.944 
					167.183,220.827 162.882,235.038 				"/>
			</g>
			<g>
				<polygon fill="#343130" points="203.535,279.109 237.846,180.244 249.343,189.202 262.437,196.375 246.641,220.944 
					239.872,220.827 244.183,235.038 				"/>
			</g>
		</g>
	</g>
</g>
<g>
	<g>
		<g>
			<path fill="#4B4C55" d="M205.022,11.892c-88.158,0-159.62,68.761-159.62,153.575c0,84.824,71.462,153.574,159.62,153.574
				c88.164,0,159.625-68.75,159.625-153.574C364.647,80.652,293.186,11.892,205.022,11.892z M205.022,297.69
				c-75.895,0-137.417-59.209-137.417-132.224c0-73.016,61.522-132.219,137.417-132.219c75.896,0,137.424,59.204,137.424,132.219
				C342.446,238.481,280.917,297.69,205.022,297.69z"/>
		</g>
		<g>
			<path fill="#FFFFFF" d="M205.022,28.053c-78.874,0-142.827,61.521-142.827,137.414c0,75.886,63.954,137.418,142.827,137.418
				c78.879,0,142.828-61.532,142.828-137.418C347.85,89.575,283.901,28.053,205.022,28.053z M205.022,283.775
				c-67.908,0-122.961-52.968-122.961-118.309c0-65.348,55.053-118.31,122.961-118.31c67.914,0,122.966,52.962,122.966,118.31
				C327.988,230.808,272.936,283.775,205.022,283.775z"/>
		</g>
	</g>
</g>
<g>
	<g>
		<polygon fill="#39B54A" points="306.631,188.081 262.437,133.867 281.355,120.65 304.773,158.893 353.732,64.563 371.332,78.88 		
			"/>
	</g>
</g>
</svg>
