<?xml version="1.0" encoding="utf-8"?>
<!-- Generator: Adobe Illustrator 16.0.0, SVG Export Plug-In . SVG Version: 6.00 Build 0)  -->
<!DOCTYPE svg PUBLIC "-//W3C//DTD SVG 1.1//EN" "http://www.w3.org/Graphics/SVG/1.1/DTD/svg11.dtd">
<svg version="1.1" id="Layer_1" xmlns="http://www.w3.org/2000/svg" xmlns:xlink="http://www.w3.org/1999/xlink" x="0px" y="0px"
	 width="407.054px" height="322.648px" viewBox="0 0 407.054 322.648" enable-background="new 0 0 407.054 322.648"
	 xml:space="preserve">
<g>
	<g>
		<polygon fill="#FBB041" points="160.904,213.819 152.291,213.819 147.675,229.973 156.926,229.973 151.15,252.535 
			168.036,223.804 158.051,223.804 		"/>
		<polygon fill="#FBB041" points="76.468,239.324 67.854,239.324 63.238,255.476 72.489,255.476 66.713,278.039 83.599,249.309 
			73.615,249.309 		"/>
		<polygon fill="#FBB041" points="342.804,238.468 334.188,238.468 329.574,254.62 338.824,254.62 333.05,277.184 349.936,248.454 
			339.949,248.454 		"/>
		<polygon fill="#FBB041" points="189.527,224.461 178.544,224.461 172.662,245.053 184.455,245.053 177.093,273.817 
			198.618,237.19 185.89,237.19 		"/>
		<polygon fill="#FBB041" points="221.981,213.819 213.366,213.819 208.751,229.973 218.001,229.973 212.228,252.535 
			229.112,223.804 219.127,223.804 		"/>
		<polygon fill="#FBB041" points="250.603,224.461 239.62,224.461 233.738,245.053 245.532,245.053 238.168,273.817 259.695,237.19 
			246.966,237.19 		"/>
	</g>
	<g>
		<g>
			<g>
				<path fill="#4DBFE8" d="M385.354,126.579c-3.461-7.092-10.737-11.979-19.16-11.979c-2.813,0-5.498,0.551-7.955,1.542
					c-3.904-4.886-9.912-8.021-16.653-8.021c-5.787,0-11.021,2.318-14.86,6.062c13.981,10.217,23.518,25.845,25.864,43.654h45.027
					c2.563-3.306,4.089-7.455,4.089-11.96C401.705,136.165,394.631,128.111,385.354,126.579z"/>
				<path fill="#4DBFE8" d="M176.867,51.673c18.624,0,36.139,7.329,49.13,20.338c6.025-1.672,12.238-2.517,18.557-2.517
					c13.637,0,26.53,3.882,37.46,10.864c0.06-0.757,0.096-1.52,0.096-2.292c0-14.206-10.349-25.986-23.922-28.228
					c-5.059-10.375-15.707-17.524-28.027-17.524c-4.117,0-8.043,0.805-11.642,2.255c-5.711-7.149-14.499-11.734-24.36-11.734
					c-15.58,0-28.488,11.43-30.8,26.361c-9.224,0.746-17.295,5.517-22.5,12.541C151.652,55.199,164.094,51.673,176.867,51.673z"/>
				<path fill="#4DBFE8" d="M72.739,123.312c9.991-10.773,22.967-18.023,37.17-20.89c2.04-7.27,5.26-14.149,9.503-20.371
					c-3.205-1.068-6.628-1.665-10.192-1.665c-4.258,0-8.322,0.833-12.044,2.333c-5.909-7.396-15-12.141-25.203-12.141
					c-16.119,0-29.475,11.827-31.867,27.274c-16.577,1.342-29.614,15.21-29.614,32.133c0,5.76,1.516,11.163,4.162,15.841h44.104
					C61.897,137.575,66.604,129.928,72.739,123.312z"/>
			</g>
			<g>
				<path fill="#4DBFE8" d="M330.98,199.346c7.046-9.096,11.246-20.506,11.246-32.899c0-26.708-19.461-48.858-44.976-53.074
					c-9.513-19.506-29.532-32.949-52.698-32.949c-7.738,0-15.121,1.515-21.886,4.242c-10.739-13.44-27.257-22.063-45.801-22.063
					c-29.291,0-53.559,21.49-57.907,49.562c-30.125,2.438-53.817,27.641-53.817,58.395c0,10.465,2.757,20.281,7.565,28.786H330.98z"
					/>
				<g>
					<g>
						<g>
							<circle fill="#424143" cx="157.555" cy="143.16" r="10.281"/>
							<circle fill="#FFFFFF" cx="160.383" cy="138.661" r="5.398"/>
							<path fill="#FFFFFF" d="M143.847,126.881l29.131,18.848c0,0,4.627-21.248,3.941-21.248c-0.685,0-10.453-8.568-20.392-8.568"
								/>
						</g>
						<g>
							<circle fill="#424143" cx="249.816" cy="143.16" r="10.282"/>
							<circle fill="#FFFFFF" cx="246.988" cy="138.661" r="5.397"/>
							<path fill="#FFFFFF" d="M263.523,126.881l-29.131,18.848c0,0-4.625-21.248-3.941-21.248c0.687,0,10.453-8.568,20.392-8.568"
								/>
						</g>
					</g>
					<g>
						<path fill="#424143" d="M217.295,176.294c-0.817,0-1.483-0.666-1.483-1.487c0-6.686-5.44-12.125-12.127-12.125
							c-6.687,0-12.125,5.438-12.125,12.125c0,0.822-0.666,1.487-1.487,1.487c-0.819,0-1.484-0.666-1.484-1.487
							c0-8.324,6.772-15.095,15.097-15.095c8.324,0,15.096,6.771,15.096,15.095C218.781,175.629,218.118,176.294,217.295,176.294z"
							/>
					</g>
				</g>
				<path opacity="0.1" fill="#424143" d="M342.227,166.447c0-5.306-0.779-10.427-2.209-15.267
					c-31.865,19.967-129.844,66.743-271.698,0.309c-2.056,5.979-3.177,12.392-3.177,19.071c0,10.465,2.757,20.281,7.565,28.786
					H330.98C338.026,190.25,342.227,178.839,342.227,166.447z"/>
			</g>
		</g>
		<g>
			<path fill="#FFFFFF" d="M335.044,31.771c-17.936,0-32.475,14.539-32.475,32.476c0,6.019,1.645,11.652,4.5,16.485l-5.337,15.209
				l13.598-5.896c5.467,4.183,12.297,6.675,19.714,6.675c17.936,0,32.476-14.539,32.476-32.474
				C367.52,46.31,352.979,31.771,335.044,31.771z"/>
			<text transform="matrix(1 0 0 1 312.7822 62.7529)"><tspan x="0" y="0" fill="#4DBFE8" font-family="'Montserrat-Bold'" font-size="14.5376">Whoo</tspan><tspan x="0" y="11.936" fill="#4DBFE8" font-family="'Montserrat-Bold'" font-size="14.5376">oops!</tspan></text>
			<path opacity="0.1" fill="#424143" d="M335.044,96.72c17.936,0,32.476-14.539,32.476-32.474c0-7.027-2.238-13.527-6.034-18.84
				c-6.416,14.388-21.536,35.832-54.627,35.923l-5.126,14.612l13.598-5.896C320.797,94.228,327.627,96.72,335.044,96.72z"/>
		</g>
	</g>
</g>
</svg>
